<svg xmlns="http://www.w3.org/2000/svg" viewBox="0 0 100 100">
  <defs>
    <linearGradient id="bg" x1="0%" y1="0%" x2="100%" y2="100%">
      <stop offset="0%" stop-color="#FADADD"/>
      <stop offset="50%" stop-color="#F5A0B5"/>
      <stop offset="100%" stop-color="#D96B86"/>
    </linearGradient>
    <linearGradient id="heartGrad" x1="0%" y1="0%" x2="100%" y2="100%">
      <stop offset="0%" stop-color="#FCC8D5"/>
      <stop offset="40%" stop-color="#E87D9A"/>
      <stop offset="100%" stop-color="#B84A66"/>
    </linearGradient>
    <radialGradient id="shine" cx="35%" cy="28%" r="45%">
      <stop offset="0%" stop-color="#FFFFFF" stop-opacity="0.7"/>
      <stop offset="40%" stop-color="#FFFFFF" stop-opacity="0.2"/>
      <stop offset="100%" stop-color="#FFFFFF" stop-opacity="0"/>
    </radialGradient>
    <filter id="shadow" x="-10%" y="-10%" width="130%" height="130%">
      <feDropShadow dx="2" dy="3" stdDeviation="3" flood-color="#A04060" flood-opacity="0.35"/>
    </filter>
  </defs>
  <rect width="100" height="100" rx="22" fill="url(#bg)"/>
  <g transform="translate(50,48)">
    <path d="M0 30 C-22 10,-35 -5,-28 -18 C-21 -31,-10 -25,0 -15 C10 -25,21 -31,28 -18 C35 -5,22 10,0 30Z"
          fill="url(#heartGrad)" filter="url(#shadow)"/>
    <path d="M0 27 C-20 9,-32 -4,-26 -16 C-20 -27,-9 -22,0 -14 C9 -22,20 -27,26 -16 C32 -4,20 9,0 27Z"
          fill="url(#shine)"/>
  </g>
</svg>
